<?xml version="1.0" encoding="UTF-8" standalone="no"?>
<svg
   xmlns:dc="http://purl.org/dc/elements/1.1/"
   xmlns:cc="http://creativecommons.org/ns#"
   xmlns:rdf="http://www.w3.org/1999/02/22-rdf-syntax-ns#"
   xmlns:svg="http://www.w3.org/2000/svg"
   xmlns="http://www.w3.org/2000/svg"
   xmlns:sodipodi="http://sodipodi.sourceforge.net/DTD/sodipodi-0.dtd"
   xmlns:inkscape="http://www.inkscape.org/namespaces/inkscape"
   version="1.1"
   id="svg10"
   xml:space="preserve"
   width="453.88379"
   height="217.89709"
   viewBox="0 0 453.88379 217.89709"
   sodipodi:docname="Beladung.svg"
   inkscape:version="1.0.2-2 (e86c870879, 2021-01-15)"><metadata
     id="metadata16"><rdf:RDF><cc:Work
         rdf:about=""><dc:format>image/svg+xml</dc:format><dc:type
           rdf:resource="http://purl.org/dc/dcmitype/StillImage" /><dc:title></dc:title></cc:Work></rdf:RDF></metadata><defs
     id="defs14"><rect
       x="115.67531"
       y="181.7812"
       width="258.12763"
       height="7.6649251"
       id="rect402" /><clipPath
       clipPathUnits="userSpaceOnUse"
       id="clipPath242"><path
         d="M -0.48,-0.16 H 399.68 V 85.76 H -0.48 Z"
         clip-rule="evenodd"
         id="path240" /></clipPath><clipPath
       clipPathUnits="userSpaceOnUse"
       id="clipPath252"><path
         d="M -0.48,0 H 399.68 V 87.04 H -0.48 Z"
         clip-rule="evenodd"
         id="path250" /></clipPath><clipPath
       clipPathUnits="userSpaceOnUse"
       id="clipPath262"><path
         d="M -0.48,-0.16 H 399.68 V 90.08 H -0.48 Z"
         clip-rule="evenodd"
         id="path260" /></clipPath><clipPath
       clipPathUnits="userSpaceOnUse"
       id="clipPath272"><path
         d="M -0.48,-0.16 H 399.68 V 98.88 H -0.48 Z"
         clip-rule="evenodd"
         id="path270" /></clipPath><clipPath
       clipPathUnits="userSpaceOnUse"
       id="clipPath318"><path
         d="m 123.52,827.36 v 15.2 h 570.72 v -15.2 z"
         clip-rule="evenodd"
         id="path316" /></clipPath></defs><sodipodi:namedview
     pagecolor="#ffffff"
     bordercolor="#666666"
     borderopacity="1"
     objecttolerance="10"
     gridtolerance="10"
     guidetolerance="10"
     inkscape:pageopacity="0"
     inkscape:pageshadow="2"
     inkscape:window-width="1920"
     inkscape:window-height="986"
     id="namedview12"
     showgrid="false"
     inkscape:zoom="2.3524331"
     inkscape:cx="219.26211"
     inkscape:cy="132.4191"
     inkscape:window-x="-11"
     inkscape:window-y="-11"
     inkscape:window-maximized="1"
     inkscape:current-layer="g18" /><g
     id="g18"
     inkscape:groupmode="layer"
     inkscape:label="PEM deutsch(1)"
     transform="matrix(1.3333333,0,0,-1.3333333,-95.619613,441.36239)"><text
       transform="matrix(1,0,0,-1,284.46296,97.29168)"
       style="font-variant:normal;font-weight:normal;font-size:6.49632px;font-family:F5;-inkscape-font-specification:F5;writing-mode:lr-tb;fill:#000000;fill-opacity:1;fill-rule:nonzero;stroke:none"
       id="text94"><tspan
         x="0"
         y="0"
         id="tspan92"></tspan></text><text
       transform="matrix(1,0,0,-1,289.40792,95.93424)"
       style="font-variant:normal;font-weight:normal;font-size:5.23584px;font-family:F5;-inkscape-font-specification:F5;writing-mode:lr-tb;fill:#000000;fill-opacity:1;fill-rule:nonzero;stroke:none"
       id="text98"><tspan
         x="0"
         y="0"
         id="tspan96"></tspan></text><text
       transform="matrix(1,0,0,-1,292.80152,97.29168)"
       style="font-variant:normal;font-weight:normal;font-size:6.49632px;font-family:F5;-inkscape-font-specification:F5;writing-mode:lr-tb;fill:#000000;fill-opacity:1;fill-rule:nonzero;stroke:none"
       id="text102"><tspan
         x="0"
         y="0"
         id="tspan100"></tspan></text><text
       transform="matrix(1,0,0,-1,314.32664,97.09776)"
       style="font-variant:normal;font-weight:normal;font-size:6.49632px;font-family:F5;-inkscape-font-specification:F5;writing-mode:lr-tb;fill:#000000;fill-opacity:1;fill-rule:nonzero;stroke:none"
       id="text110"><tspan
         x="0"
         y="0"
         id="tspan108"></tspan></text><text
       transform="matrix(1,0,0,-1,319.2716,95.74032)"
       style="font-variant:normal;font-weight:normal;font-size:5.23584px;font-family:F5;-inkscape-font-specification:F5;writing-mode:lr-tb;fill:#000000;fill-opacity:1;fill-rule:nonzero;stroke:none"
       id="text114"><tspan
         x="0"
         y="0"
         id="tspan112"></tspan></text><text
       transform="matrix(1,0,0,-1,314.32664,102.62448)"
       style="font-variant:normal;font-weight:normal;font-size:6.49632px;font-family:F5;-inkscape-font-specification:F5;writing-mode:lr-tb;fill:#000000;fill-opacity:1;fill-rule:nonzero;stroke:none"
       id="text118"><tspan
         x="0 4.7263393"
         y="0"
         sodipodi:role="line"
         id="tspan116"></tspan></text><text
       transform="matrix(1,0,0,-1,279.61496,81.87504)"
       style="font-variant:normal;font-weight:normal;font-size:6.49632px;font-family:F5;-inkscape-font-specification:F5;writing-mode:lr-tb;fill:#000000;fill-opacity:1;fill-rule:nonzero;stroke:none"
       id="text132"><tspan
         x="0"
         y="0"
         id="tspan130"></tspan></text><text
       transform="matrix(1,0,0,-1,284.46296,80.5176)"
       style="font-variant:normal;font-weight:normal;font-size:5.23584px;font-family:F5;-inkscape-font-specification:F5;writing-mode:lr-tb;fill:#000000;fill-opacity:1;fill-rule:nonzero;stroke:none"
       id="text136"><tspan
         x="0"
         y="0"
         id="tspan134"></tspan></text><text
       transform="matrix(1,0,0,-1,287.85656,81.87504)"
       style="font-variant:normal;font-weight:normal;font-size:6.49632px;font-family:F5;-inkscape-font-specification:F5;writing-mode:lr-tb;fill:#000000;fill-opacity:1;fill-rule:nonzero;stroke:none"
       id="text140"><tspan
         x="0"
         y="0"
         id="tspan138"></tspan></text><text
       transform="matrix(1,0,0,-1,309.47864,81.68112)"
       style="font-variant:normal;font-weight:normal;font-size:6.49632px;font-family:F5;-inkscape-font-specification:F5;writing-mode:lr-tb;fill:#000000;fill-opacity:1;fill-rule:nonzero;stroke:none"
       id="text148"><tspan
         x="0"
         y="0"
         id="tspan146"></tspan></text><text
       transform="matrix(1,0,0,-1,314.32664,80.32368)"
       style="font-variant:normal;font-weight:normal;font-size:5.23584px;font-family:F5;-inkscape-font-specification:F5;writing-mode:lr-tb;fill:#000000;fill-opacity:1;fill-rule:nonzero;stroke:none"
       id="text152"><tspan
         x="0"
         y="0"
         id="tspan150"></tspan></text><text
       transform="matrix(1,0,0,-1,309.47864,87.20784)"
       style="font-variant:normal;font-weight:normal;font-size:6.49632px;font-family:F5;-inkscape-font-specification:F5;writing-mode:lr-tb;fill:#000000;fill-opacity:1;fill-rule:nonzero;stroke:none"
       id="text156"><tspan
         x="0 4.6773763"
         y="0"
         sodipodi:role="line"
         id="tspan154"></tspan></text><g
       id="g164"
       transform="matrix(0.60604,0,0,-0.60604,79.352369,328.03605)"><path
         d="M 0,0 H 566.88 V 245.76 H 0 Z"
         style="fill:#ffffff;fill-opacity:1;fill-rule:nonzero;stroke:none"
         id="path166" /></g><g
       id="g168"
       transform="matrix(0.60604,0,0,-0.60604,117.8659,323.09078)"><path
         d="M 0,0 H 469.28 V 197.44 H 0 Z"
         style="fill:#ffffff;fill-opacity:1;fill-rule:nonzero;stroke:none"
         id="path170" /></g><g
       id="g172"
       transform="matrix(0.60604,0,0,-0.60604,117.8659,203.62819)"><path
         d="M 0,0 H 469.28 V 0.64 H 0 Z m 0,-14.88 h 469.28 v 0.8 H 0 Z m 0,-8.8 h 469.28 v 0.8 H 0 Z m 0,-6.08 h 469.28 v 0.8 H 0 Z"
         style="fill:#d9d9d9;fill-opacity:1;fill-rule:nonzero;stroke:none"
         id="path174" /></g><g
       id="g176"
       transform="matrix(0.60604,0,0,-0.60604,117.8659,224.57292)"><path
         d="M 0,0 H 469.28 V 0.8 H 0 Z m 0,-3.84 h 469.28 v 0.8 H 0 Z M 0,-7.2 h 469.28 v 0.8 L 0,-6.4 Z m 0,-2.88 h 469.28 v 0.8 H 0 Z"
         style="fill:#d9d9d9;fill-opacity:1;fill-rule:nonzero;stroke:none"
         id="path178" /></g><g
       id="g180"
       transform="matrix(0.60604,0,0,-0.60604,117.8659,232.23328)"><path
         d="M 0,0 H 469.28 V 0.8 H 0 Z m 0,-2.24 h 469.28 v 0.8 H 0 Z m 0,-14.88 h 469.28 v 0.8 H 0 Z m 0,-8.64 h 469.28 v 0.8 H 0 Z"
         style="fill:#d9d9d9;fill-opacity:1;fill-rule:nonzero;stroke:none"
         id="path182" /></g><g
       id="g184"
       transform="matrix(0.60604,0,0,-0.60604,117.8659,251.62656)"><path
         d="M 0,0 H 469.28 V 0.8 H 0 Z M 0,-4.8 H 469.28 V -4 H 0 Z m 0,-3.84 h 469.28 v 0.8 H 0 Z M 0,-12 h 469.28 v 0.8 H 0 Z"
         style="fill:#d9d9d9;fill-opacity:1;fill-rule:nonzero;stroke:none"
         id="path186" /></g><g
       id="g188"
       transform="matrix(0.60604,0,0,-0.60604,117.8659,260.54745)"><path
         d="M 0,0 H 469.28 V 0.8 H 0 Z m 0,-2.56 h 469.28 v 0.8 H 0 Z M 0,-4.8 H 469.28 V -4 L 0,-4 Z m 0,-14.88 h 469.28 v 0.8 H 0 Z"
         style="fill:#d9d9d9;fill-opacity:1;fill-rule:nonzero;stroke:none"
         id="path190" /></g><g
       id="g192"
       transform="matrix(0.60604,0,0,-0.60604,117.8659,277.8075)"><path
         d="M 0,0 H 469.28 V 0.8 H 0 Z m 0,-6.08 h 469.28 v 0.8 H 0 Z m 0,-4.8 h 469.28 v 0.8 H 0 Z m 0,-3.84 h 469.28 v 0.8 H 0 Z"
         style="fill:#d9d9d9;fill-opacity:1;fill-rule:nonzero;stroke:none"
         id="path194" /></g><g
       id="g196"
       transform="matrix(0.60604,0,0,-0.60604,117.8659,288.76468)"><path
         d="M 0,0 H 469.28 V 0.8 H 0 Z m 0,-2.88 h 469.28 v 0.8 H 0 Z m 0,-2.56 h 469.28 v 0.8 H 0 Z m 0,-2.24 h 469.28 v 0.8 H 0 Z"
         style="fill:#d9d9d9;fill-opacity:1;fill-rule:nonzero;stroke:none"
         id="path198" /></g><g
       id="g200"
       transform="matrix(0.60604,0,0,-0.60604,117.8659,302.43692)"><path
         d="M 0,0 H 469.28 V 0.8 H 0 Z m 0,-8.64 h 469.28 v 0.8 H 0 Z m 0,-6.24 h 469.28 v 0.8 H 0 Z m 0,-4.8 h 469.28 v 0.8 H 0 Z m 0,-3.84 h 469.28 v 0.8 H 0 Z m 0,-3.36 h 469.28 v 0.8 H 0 Z m 0,-2.88 h 469.28 v 0.8 H 0 Z m 0,-2.4 h 469.28 v 0.8 H 0 Z"
         style="fill:#d9d9d9;fill-opacity:1;fill-rule:nonzero;stroke:none"
         id="path202" /></g><g
       id="g204"
       transform="matrix(0.60604,0,0,-0.60604,117.8659,203.72513)"><path
         d="M 0,0 H 469.28 V 0.96 H 0 Z m 0,-49.44 h 469.28 v 1.12 H 0 Z m 0,-49.28 h 469.28 v 1.12 H 0 Z m 0,-49.44 h 469.28 v 1.12 H 0 Z"
         style="fill:#000000;fill-opacity:1;fill-rule:nonzero;stroke:none"
         id="path206" /></g><g
       id="g208"
       transform="matrix(0.60604,0,0,-0.60604,160.91899,323.09079)"><path
         d="M 0,0 V 197.44 H -0.8 V 0 Z m 41.28,0 v 197.44 h -0.8 V 0 Z m 29.44,0 v 197.44 h -0.8 V 0 Z m 22.72,0 v 197.44 h -0.8 V 0 Z M 112,0 v 197.44 h -0.8 V 0 Z m 15.68,0 v 197.44 h -0.8 V 0 Z m 13.6,0 v 197.44 h -0.8 V 0 Z m 12,0 v 197.44 h -0.8 V 0 Z m 81.44,0 v 197.44 h -0.8 V 0 Z M 276,0 v 197.44 h -0.8 V 0 Z m 29.28,0 v 197.44 h -0.8 V 0 Z M 328,0 v 197.44 h -0.8 V 0 Z m 18.56,0 v 197.44 h -0.8 V 0 Z m 15.84,0 v 197.44 h -0.8 V 0 Z M 376,0 v 197.44 h -0.8 V 0 Z m 12,0 v 197.44 h -0.8 V 0 Z"
         style="fill:#bfbfbf;fill-opacity:1;fill-rule:nonzero;stroke:none"
         id="path210" /></g><g
       id="g212"
       transform="matrix(0.60604,0,0,-0.60604,260.40652,323.09079)"><path
         d="M 0,0 V 197.44 H -1.12 V 0 Z M 234.56,0 V 197.44 H 233.6 V 0 Z"
         style="fill:#000000;fill-opacity:1;fill-rule:nonzero;stroke:none"
         id="path214" /></g><g
       id="g216"
       transform="matrix(0.60604,0,0,-0.60604,117.575,323.09079)"><path
         d="m 0,0 c 0,-0.32 0.16,-0.48 0.48,-0.48 h 469.28 c 0.32,0 0.48,0.16 0.48,0.48 v 197.44 c 0,0.32 -0.16,0.48 -0.48,0.48 H 0.48 C 0.16,197.92 0,197.76 0,197.44 Z m 0.96,197.44 -0.48,-0.48 h 469.28 l -0.48,0.48 V 0 l 0.48,0.48 H 0.48 L 0.96,0 Z"
         style="fill:#000000;fill-opacity:1;fill-rule:nonzero;stroke:none"
         id="path218" /></g><g
       id="g220"
       transform="matrix(0.60604,0,0,-0.60604,117.575,323.09078)"><path
         d="M 0,0 H 0.96 V 197.44 H 0 Z"
         style="fill:#000000;fill-opacity:1;fill-rule:nonzero;stroke:none"
         id="path222" /></g><g
       id="g224"
       transform="matrix(0.60604,0,0,-0.60604,115.44174,203.72513)"><path
         d="M 0,0 H 4 V 0.96 H 0 Z m 0,-49.44 h 4 v 1.12 H 0 Z m 0,-49.28 h 4 v 1.12 H 0 Z m 0,-49.44 h 4 v 1.12 H 0 Z m 0,-49.28 h 4 v 0.96 H 0 Z"
         style="fill:#000000;fill-opacity:1;fill-rule:nonzero;stroke:none"
         id="path226" /></g><g
       id="g228"
       transform="matrix(0.60604,0,0,-0.60604,117.8659,323.38167)"><path
         d="M 0,0 H 469.28 V 0.96 H 0 Z"
         style="fill:#000000;fill-opacity:1;fill-rule:nonzero;stroke:none"
         id="path230" /></g><g
       id="g232"
       transform="matrix(0.60604,0,0,-0.60604,118.15681,323.09079)"><path
         d="M 0,0 V 4 H -0.96 V 0 Z M 234.72,0 V 4 H 233.6 V 0 Z m 234.56,0 v 4 h -0.96 V 0 Z"
         style="fill:#000000;fill-opacity:1;fill-rule:nonzero;stroke:none"
         id="path234" /></g><g
       id="g236"
       transform="matrix(0.60604,0,0,-0.60604,118.05984,275.18939)"><g
         id="g238"
         clip-path="url(#clipPath242)"><path
           d="M 0,0 10.4,2.24 21.12,4.48 32,6.72 l 11.04,2.4 22.56,4.8 11.04,2.4 11.2,2.24 10.88,2.4 10.56,2.24 10.24,2.24 9.92,2.08 9.6,1.92 8.8,1.92 4.32,0.96 4.16,0.8 3.84,0.96 3.84,0.8 3.2,0.64 3.2,0.64 3.04,0.64 3.04,0.64 2.88,0.64 2.72,0.64 2.72,0.48 2.72,0.64 2.56,0.48 2.56,0.48 2.4,0.48 2.24,0.64 2.4,0.48 2.24,0.48 4.32,0.8 4,0.8 3.84,0.96 3.68,0.64 3.68,0.8 3.36,0.64 3.36,0.8 3.2,0.64 3.2,0.64 3.36,0.8 3.36,0.64 3.04,0.64 2.88,0.64 2.88,0.48 2.72,0.64 2.56,0.48 2.4,0.64 2.4,0.48 2.4,0.48 4.48,0.96 4.48,0.8 4.32,0.96 2.24,0.48 2.08,0.48 2.08,0.32 1.92,0.48 3.84,0.8 3.68,0.8 3.52,0.64 3.36,0.8 3.36,0.64 3.2,0.64 3.2,0.64 3.2,0.64 2.88,0.64 2.88,0.64 2.72,0.48 2.72,0.64 5.28,1.12 2.4,0.48 2.56,0.48 2.4,0.48 2.24,0.48 4.64,0.96 4.32,0.96 4.16,0.8 4,0.8 3.84,0.8 3.68,0.8 3.52,0.64 3.52,0.8 3.36,0.64 3.2,0.64 3.2,0.64 3.04,0.64 2.88,0.64 2.88,0.64 2.72,0.48 2.72,0.48 2.56,0.64 2.72,0.48 c 0.48,0.16 0.96,0.64 0.8,1.28 -0.16,0.48 -0.64,0.8 -1.12,0.64 l -2.72,-0.48 -2.72,-0.48 -2.56,-0.64 -2.88,-0.48 -2.88,-0.64 -2.88,-0.64 -3.04,-0.48 -3.2,-0.64 -3.2,-0.8 -3.36,-0.64 -3.36,-0.64 -3.68,-0.8 -3.68,-0.8 -3.84,-0.8 -4,-0.8 -4.16,-0.8 -4.32,-0.96 -4.48,-0.8 -2.4,-0.48 -2.4,-0.64 -2.4,-0.48 -2.56,-0.48 -5.28,-1.12 -2.72,-0.48 -2.72,-0.64 -2.88,-0.64 -2.88,-0.48 -3.04,-0.64 -3.2,-0.64 -3.2,-0.8 -3.36,-0.64 -3.36,-0.64 -3.52,-0.8 -3.68,-0.8 -3.84,-0.8 -2.08,-0.32 -2.08,-0.48 -2.08,-0.48 -2.08,-0.48 -4.48,-0.8 -4.32,-0.96 -4.64,-0.96 -2.24,-0.48 -2.4,-0.48 -2.56,-0.48 -2.56,-0.64 -2.72,-0.48 -2.72,-0.64 -3.04,-0.64 -3.04,-0.64 -3.2,-0.64 -3.52,-0.8 -3.04,-0.64 -3.36,-0.64 -3.36,-0.64 -3.36,-0.8 -3.52,-0.64 -3.68,-0.8 -4,-0.8 -4,-0.96 -4.32,-0.8 -2.24,-0.48 -2.24,-0.48 -2.4,-0.48 -2.4,-0.48 -2.56,-0.64 -2.56,-0.48 -2.56,-0.64 -2.72,-0.48 -2.88,-0.64 -2.88,-0.64 -3.04,-0.64 -3.04,-0.64 -3.2,-0.64 -3.2,-0.64 -3.84,-0.8 -3.84,-0.8 -4.16,-0.96 -4.16,-0.8 -8.96,-1.92 -9.44,-2.08 L 119.2,27.36 108.8,25.12 98.24,22.88 87.36,20.64 76.32,18.24 65.12,15.84 42.72,11.04 31.52,8.8 20.64,6.4 9.92,4.16 -0.48,1.92 C -0.96,1.76 -1.44,1.28 -1.28,0.8 -1.12,0.16 -0.64,-0.16 0,0 Z"
           style="fill:#ff0000;fill-opacity:1;fill-rule:nonzero;stroke:none"
           id="path244" /></g></g><g
       id="g246"
       transform="matrix(0.60604,0,0,-0.60604,118.05984,290.89795)"><g
         id="g248"
         clip-path="url(#clipPath252)"><path
           d="m 0,0 10.4,2.4 10.72,2.24 10.88,2.4 11.04,2.4 22.56,4.96 11.04,2.4 11.2,2.4 10.88,2.4 10.56,2.4 10.24,2.24 9.92,2.08 9.6,2.08 8.8,1.92 4.32,0.96 4.16,0.96 3.84,0.8 3.84,0.8 3.2,0.8 3.2,0.64 3.04,0.64 3.04,0.64 2.88,0.64 2.72,0.64 2.72,0.48 2.72,0.64 2.56,0.48 2.4,0.48 2.56,0.64 2.24,0.48 2.4,0.48 2.24,0.48 4.32,0.8 4,0.96 3.84,0.8 3.68,0.8 3.68,0.64 3.36,0.8 3.36,0.64 3.2,0.64 3.2,0.8 3.36,0.64 3.36,0.64 3.04,0.64 2.88,0.64 2.88,0.64 2.72,0.64 2.56,0.48 2.4,0.48 2.4,0.48 2.4,0.48 4.48,0.96 4.48,0.96 4.32,0.96 2.24,0.48 2.08,0.32 2.08,0.48 1.92,0.48 3.84,0.8 3.68,0.64 3.52,0.8 3.36,0.64 3.36,0.8 3.2,0.64 3.2,0.64 3.2,0.64 2.88,0.64 2.88,0.64 2.72,0.48 2.72,0.64 5.28,1.12 2.4,0.48 2.56,0.48 2.4,0.48 2.24,0.48 4.64,0.96 4.32,0.96 4.16,0.8 4,0.8 3.84,0.8 3.68,0.8 3.52,0.64 3.52,0.8 3.36,0.64 3.2,0.64 3.2,0.64 3.04,0.64 2.88,0.64 2.88,0.64 2.72,0.48 2.72,0.64 2.56,0.48 2.72,0.48 c 0.48,0.16 0.96,0.64 0.8,1.28 -0.16,0.48 -0.64,0.8 -1.12,0.8 l -2.72,-0.64 -2.72,-0.48 -2.56,-0.64 -2.88,-0.48 -2.88,-0.64 -2.88,-0.64 -3.04,-0.48 -3.2,-0.64 -3.2,-0.8 -3.36,-0.64 -3.36,-0.64 -3.68,-0.8 -3.68,-0.8 -3.84,-0.8 -4,-0.8 -4.16,-0.8 -4.32,-0.96 -4.48,-0.96 -2.4,-0.48 -2.4,-0.48 -2.4,-0.48 -2.56,-0.48 -5.28,-1.12 -2.72,-0.64 -2.72,-0.48 -2.88,-0.64 -2.88,-0.64 -3.04,-0.64 -3.2,-0.64 -3.2,-0.64 -3.36,-0.64 -3.36,-0.8 -3.52,-0.64 -3.68,-0.8 -3.84,-0.8 -2.08,-0.48 -2.08,-0.32 -2.08,-0.48 -2.08,-0.48 -4.48,-0.96 -4.32,-0.96 -4.64,-0.8 -2.24,-0.64 -2.4,-0.48 -2.56,-0.48 -2.56,-0.48 -2.72,-0.64 -2.72,-0.64 -3.04,-0.48 -3.04,-0.64 -3.2,-0.8 -3.52,-0.64 -3.04,-0.64 -3.36,-0.8 -3.36,-0.64 -3.36,-0.64 -3.52,-0.8 -3.68,-0.8 -4,-0.8 -4,-0.8 -4.32,-0.96 -2.24,-0.48 -2.24,-0.48 -2.4,-0.48 -2.4,-0.48 -2.56,-0.64 -2.56,-0.48 -2.56,-0.64 -2.72,-0.48 -2.88,-0.64 -2.88,-0.64 -3.04,-0.64 -3.04,-0.64 -3.2,-0.64 -3.2,-0.8 -3.84,-0.8 -3.84,-0.8 -4.16,-0.96 -4.16,-0.8 -8.96,-2.08 L 129.12,30.4 119.2,28.16 108.8,25.92 98.24,23.68 87.36,21.28 76.32,18.88 65.12,16.32 42.72,11.52 31.52,8.96 20.64,6.56 9.92,4.32 -0.48,2.08 C -0.96,1.92 -1.44,1.44 -1.28,0.8 -1.12,0.32 -0.64,0 0,0 Z"
           style="fill:#0000ff;fill-opacity:1;fill-rule:nonzero;stroke:none"
           id="path254" /></g></g><g
       id="g256"
       transform="matrix(0.60604,0,0,-0.60604,118.05984,305.63684)"><g
         id="g258"
         clip-path="url(#clipPath262)"><path
           d="M 0,0 10.4,2.4 21.12,4.96 32,7.52 l 11.2,2.56 22.4,5.28 11.2,2.72 11.04,2.56 10.88,2.56 10.56,2.4 10.24,2.4 9.92,2.4 9.6,2.24 8.96,2.08 4.16,0.96 4.16,0.96 3.84,0.8 3.84,0.96 3.2,0.64 3.2,0.8 3.04,0.64 3.04,0.64 2.88,0.64 2.72,0.64 2.72,0.64 2.72,0.64 2.56,0.48 2.4,0.48 2.56,0.64 2.24,0.48 2.4,0.48 2.24,0.48 4.16,0.96 4.16,0.8 3.84,0.8 3.68,0.8 3.68,0.64 3.36,0.8 3.36,0.64 3.2,0.8 3.2,0.64 3.36,0.64 3.36,0.8 3.04,0.64 2.88,0.64 2.88,0.48 2.72,0.64 2.56,0.48 2.4,0.64 2.4,0.48 2.4,0.48 4.48,0.96 4.48,0.96 4.32,0.96 2.24,0.32 2.08,0.48 2.08,0.48 1.92,0.48 3.84,0.8 3.68,0.64 3.52,0.8 3.36,0.8 3.36,0.64 3.36,0.64 3.04,0.64 3.2,0.64 2.88,0.64 2.88,0.64 2.72,0.64 2.72,0.48 5.28,1.12 2.4,0.48 2.56,0.48 2.4,0.48 2.24,0.64 4.64,0.8 4.32,0.96 4.16,0.8 4,0.96 3.84,0.8 3.68,0.64 3.52,0.8 3.52,0.64 3.36,0.8 3.2,0.64 3.2,0.64 3.04,0.64 2.88,0.64 2.88,0.48 2.72,0.64 2.72,0.48 2.56,0.64 2.72,0.48 c 0.48,0.16 0.96,0.64 0.8,1.12 -0.16,0.64 -0.64,0.96 -1.12,0.8 l -2.72,-0.48 -2.72,-0.48 -2.56,-0.64 -2.88,-0.48 -2.88,-0.64 -2.88,-0.64 -3.04,-0.64 -3.2,-0.64 -3.2,-0.64 -3.36,-0.64 -3.36,-0.8 -3.68,-0.64 -3.68,-0.8 -3.84,-0.8 -4,-0.8 -4.16,-0.96 -4.32,-0.8 -4.48,-0.96 -2.4,-0.48 -2.4,-0.48 -2.4,-0.64 -2.56,-0.48 -5.28,-1.12 -2.72,-0.48 -2.72,-0.64 -2.88,-0.64 -2.88,-0.48 -3.04,-0.64 -3.2,-0.8 -3.2,-0.64 -3.36,-0.64 -3.36,-0.8 -3.52,-0.64 -3.68,-0.8 -3.84,-0.8 -2.08,-0.48 -2.08,-0.48 -2.08,-0.32 -2.08,-0.48 -4.48,-0.96 -4.32,-0.96 -4.64,-0.96 -2.24,-0.48 -2.4,-0.48 -2.56,-0.48 -2.56,-0.64 -2.72,-0.48 -2.72,-0.64 -3.04,-0.64 -3.04,-0.64 -3.2,-0.64 -3.52,-0.8 -3.04,-0.64 -3.36,-0.64 -3.2,-0.8 -3.52,-0.64 -3.52,-0.8 -3.68,-0.8 -4,-0.8 -4,-0.8 -4.32,-0.96 -2.24,-0.48 -2.24,-0.48 -2.4,-0.48 -2.4,-0.48 -2.56,-0.64 -2.56,-0.48 -2.72,-0.64 -2.72,-0.64 -2.72,-0.64 -2.88,-0.64 -3.04,-0.64 -3.04,-0.64 -3.2,-0.8 -3.2,-0.64 -3.84,-0.96 -3.84,-0.8 -4.16,-0.96 -4.16,-0.96 -8.96,-2.08 -9.44,-2.24 L 119.2,30.08 108.8,27.52 98.24,25.12 87.36,22.56 76.32,20 65.12,17.28 42.72,12 31.52,9.44 20.64,6.88 9.92,4.32 -0.48,1.92 C -1.12,1.76 -1.44,1.28 -1.28,0.8 -1.12,0.16 -0.64,-0.16 0,0 Z"
           style="fill:#00ff00;fill-opacity:1;fill-rule:nonzero;stroke:none"
           id="path264" /></g></g><g
       id="g266"
       transform="matrix(0.60604,0,0,-0.60604,118.05984,322.31506)"><g
         id="g268"
         clip-path="url(#clipPath272)"><path
           d="M 0,0 10.4,2.88 21.12,5.92 32,8.96 l 11.2,3.2 22.4,6.4 11.2,3.2 11.04,3.2 10.88,3.04 10.56,3.04 10.4,2.88 9.92,2.72 9.44,2.56 8.96,2.56 4.16,1.12 4.16,1.12 3.84,1.12 3.84,0.96 3.2,0.8 3.2,0.8 3.04,0.8 2.88,0.8 2.88,0.64 2.88,0.64 2.72,0.64 2.56,0.64 2.56,0.64 2.56,0.64 2.4,0.48 2.4,0.48 2.24,0.64 2.24,0.48 4.32,0.8 4.16,0.96 3.84,0.8 3.68,0.64 3.68,0.8 3.36,0.64 3.36,0.64 3.2,0.8 3.2,0.64 3.36,0.8 3.36,0.64 3.04,0.64 2.88,0.64 2.88,0.64 2.72,0.64 2.56,0.48 2.4,0.64 2.4,0.48 2.4,0.48 4.48,0.96 4.48,0.96 4.32,0.96 2.24,0.48 2.08,0.48 2.08,0.48 1.92,0.32 3.84,0.8 3.68,0.8 3.52,0.8 3.36,0.8 3.36,0.64 3.36,0.64 3.04,0.8 3.2,0.64 2.88,0.48 2.88,0.64 2.72,0.64 2.72,0.64 5.28,0.96 2.56,0.64 2.4,0.48 2.4,0.48 2.24,0.48 4.64,0.96 4.32,0.96 4.16,0.8 4,0.96 3.84,0.8 3.68,0.64 3.52,0.8 3.52,0.8 3.36,0.64 3.2,0.64 3.2,0.64 3.04,0.64 2.88,0.64 2.88,0.64 2.72,0.48 2.72,0.64 2.56,0.48 2.72,0.48 c 0.48,0.16 0.96,0.8 0.8,1.28 -0.16,0.48 -0.64,0.8 -1.12,0.8 l -2.72,-0.64 -2.72,-0.48 -2.56,-0.64 -2.88,-0.48 -2.88,-0.64 -2.88,-0.64 -3.04,-0.64 -3.2,-0.64 -3.2,-0.64 -3.36,-0.64 -3.36,-0.8 -3.68,-0.64 -3.68,-0.8 -3.84,-0.8 -4,-0.8 -4.16,-0.96 -4.32,-0.96 -4.48,-0.96 -2.4,-0.48 -2.4,-0.48 -2.4,-0.48 -2.56,-0.48 -5.28,-1.12 -2.72,-0.64 -2.72,-0.48 -2.88,-0.64 -2.88,-0.64 -3.04,-0.64 -3.2,-0.64 -3.36,-0.8 -3.2,-0.64 -3.52,-0.8 -3.36,-0.64 -3.68,-0.8 -3.84,-0.8 -2.08,-0.48 -2.08,-0.48 -2.08,-0.48 -2.08,-0.48 -4.48,-0.96 -4.32,-0.96 -4.64,-0.96 -2.24,-0.48 -2.4,-0.48 -2.56,-0.48 -2.56,-0.64 -2.72,-0.64 -2.72,-0.48 -3.04,-0.64 -3.04,-0.8 -3.2,-0.64 -3.52,-0.8 -3.04,-0.64 -3.2,-0.64 -3.36,-0.8 -3.52,-0.64 -3.52,-0.64 -3.68,-0.8 -4,-0.8 -4,-0.8 -4.32,-0.96 -2.24,-0.48 -2.4,-0.48 -2.4,-0.64 -2.4,-0.48 -2.4,-0.64 -2.72,-0.48 -2.56,-0.64 -2.72,-0.64 -2.88,-0.8 -2.88,-0.64 -2.88,-0.8 -3.04,-0.8 -3.2,-0.8 -3.2,-0.8 -3.84,-0.96 -3.84,-1.12 -4.16,-1.12 -4.32,-1.12 -8.8,-2.4 -9.6,-2.72 -9.92,-2.72 L 108.8,32.96 98.24,29.92 87.36,26.88 76.16,23.68 65.12,20.48 42.56,14.08 31.52,10.88 20.64,7.84 9.92,4.8 -0.48,1.92 C -1.12,1.76 -1.44,1.12 -1.28,0.64 -1.12,0.16 -0.48,-0.16 0,0 Z"
           style="fill:#00ffff;fill-opacity:1;fill-rule:nonzero;stroke:none"
           id="path274" /></g></g><text
       transform="matrix(1,0,0,-1,86.157,200.9182)"
       style="font-variant:normal;font-weight:normal;font-size:7px;font-family:'Latin Modern Roman';-inkscape-font-specification:'Latin Modern Roman, Normal';writing-mode:lr-tb;fill:#000000;fill-opacity:1;fill-rule:nonzero;stroke:none;font-style:normal;font-stretch:normal;font-variant-ligatures:normal;font-variant-caps:normal;font-variant-numeric:normal;font-variant-east-asian:normal;"
       id="text288"><tspan
         x="0 4.4335103 6.7711797 11.285299 15.718809 20.31354"
         y="0"
         sodipodi:role="line"
         id="tspan276">0,0001</tspan><tspan
         x="4.5657601 8.9992704 11.33694 15.851059 20.284569"
         y="-30.011999"
         sodipodi:role="line"
         id="tspan278">0,001</tspan><tspan
         x="9.0331202 13.46663 15.804299 20.318419"
         y="-59.925598"
         sodipodi:role="line"
         id="tspan280">0,01</tspan><tspan
         x="13.50048 17.93399 20.27166"
         y="-89.932655"
         sodipodi:role="line"
         id="tspan282">0,1</tspan><tspan
         x="20.297953"
         y="-119.84626"
         id="tspan284"
         style="-inkscape-font-specification:'Latin Modern Roman, Normal';font-family:'Latin Modern Roman';font-weight:normal;font-style:normal;font-stretch:normal;font-variant:normal;font-size:7.00000017px;font-variant-ligatures:normal;font-variant-caps:normal;font-variant-numeric:normal;font-variant-east-asian:normal;">1</tspan><tspan
         x="29.523935 169.70348 174.13698 309.8024 314.3165 318.83063"
         y="9.6161404"
         sodipodi:role="line"
         id="tspan286">110100</tspan></text><text
       transform="matrix(0,1,1,0,82.2784,203.4406)"
       style="font-variant:normal;font-weight:normal;font-size:7.00000017px;font-family:'Latin Modern Roman';-inkscape-font-specification:'Latin Modern Roman, Normal';writing-mode:lr-tb;fill:#000000;fill-opacity:1;fill-rule:nonzero;stroke:none;font-style:normal;font-stretch:normal;font-variant-ligatures:normal;font-variant-caps:normal;font-variant-numeric:normal;font-variant-east-asian:normal;"
       id="text292"><tspan
         x="0 5.8038683 10.317987 12.494438 14.751498 17.089167 22.006334 26.520452 31.437618 35.95174 40.868904 43.609619 48.043133 50.380798 52.637859 54.89492 62.069145 66.986313"
         y="0"
         sodipodi:role="line"
         id="tspan290">Rel. Feuchte / mol</tspan></text><text
       transform="matrix(0,1,1,0,84.2198,272.5683)"
       style="font-variant:normal;font-weight:normal;font-size:5px;font-family:'Latin Modern Roman';-inkscape-font-specification:'Latin Modern Roman, Normal';writing-mode:lr-tb;fill:#000000;fill-opacity:1;fill-rule:nonzero;stroke:none;font-style:normal;font-stretch:normal;font-variant-ligatures:normal;font-variant-caps:normal;font-variant-numeric:normal;font-variant-east-asian:normal;"
       id="text296"><tspan
         x="0 3.8620365 6.9081497"
         y="0"
         sodipodi:role="line"
         id="tspan294">H2O</tspan></text><text
       transform="matrix(0,1,1,0,82.2784,285.9578)"
       style="font-variant:normal;font-weight:normal;font-size:7.00000017px;font-family:'Latin Modern Roman';-inkscape-font-specification:'Latin Modern Roman, Normal';writing-mode:lr-tb;fill:#000000;fill-opacity:1;fill-rule:nonzero;stroke:none;font-style:normal;font-stretch:normal;font-variant-ligatures:normal;font-variant-caps:normal;font-variant-numeric:normal;font-variant-east-asian:normal;"
       id="text300"><tspan
         x="0 7.1742258 12.172001"
         y="0"
         sodipodi:role="line"
         id="tspan298">mol</tspan></text><text
       transform="matrix(0,1,1,0,84.2198,300.3023)"
       style="font-variant:normal;font-weight:normal;font-size:5px;font-family:'Latin Modern Roman';-inkscape-font-specification:'Latin Modern Roman, Normal';writing-mode:lr-tb;fill:#000000;fill-opacity:1;fill-rule:nonzero;stroke:none;font-style:normal;font-stretch:normal;font-variant-ligatures:normal;font-variant-caps:normal;font-variant-numeric:normal;font-variant-east-asian:normal;"
       id="text306"><tspan
         x="0 3.8620365"
         y="0"
         sodipodi:role="line"
         id="tspan302">H2</tspan><tspan
         x="6.895607 8.7450323"
         y="-4.3717761"
         sodipodi:role="line"
         id="tspan304">-1</tspan></text><text
       transform="scale(1,-1)"
       style="font-style:normal;font-variant:normal;font-weight:normal;font-stretch:normal;font-size:7px;font-family:'Latin Modern Roman';-inkscape-font-specification:'Latin Modern Roman, Normal';font-variant-ligatures:normal;font-variant-caps:normal;font-variant-numeric:normal;font-variant-east-asian:normal;writing-mode:lr-tb;fill:#000000;fill-opacity:1;fill-rule:nonzero;stroke:none"
       id="text310"
       x="240.41638"
       y="-183.54976"><tspan
         x="240.41638 246.22026 249.36401 254.28119 258.79532 263.22882 265.5665 267.82355 270.16122 275.07837 279.5925"
         y="-183.54976"
         sodipodi:role="line"
         id="tspan308">Druck / bar</tspan></text><text
       xml:space="preserve"
       id="text400"
       style="font-size:7px;line-height:1.25;font-family:'Latin Modern Roman';-inkscape-font-specification:'Latin Modern Roman, Normal';letter-spacing:0px;white-space:pre;shape-inside:url(#rect402);" /><text
       xml:space="preserve"
       style="font-style:normal;font-variant:normal;font-weight:normal;font-stretch:normal;font-size:7px;line-height:1.25;font-family:'Latin Modern Roman';-inkscape-font-specification:'Latin Modern Roman, Normal';font-variant-ligatures:normal;font-variant-caps:normal;font-variant-numeric:normal;font-variant-east-asian:normal;letter-spacing:0px;stroke-width:0.75"
       x="174.05557"
       y="-172.56883"
       id="text408"
       transform="scale(1,-1)"><tspan
         sodipodi:role="line"
         id="tspan416"
         x="174.05557"
         y="-172.56883">20째C														40째C														60째C														80째C</tspan></text><path
       style="fill:#ff0000;fill-opacity:1;stroke:#ff0000;stroke-width:1.5;stroke-linecap:butt;stroke-linejoin:miter;stroke-miterlimit:4;stroke-dasharray:none;stroke-opacity:1"
       d="m 156.80066,174.6685 h 14.34685"
       id="path418" /><path
       style="fill:#ff0000;fill-opacity:1;stroke:#0000ff;stroke-width:1.5;stroke-linecap:butt;stroke-linejoin:miter;stroke-miterlimit:4;stroke-dasharray:none;stroke-opacity:1"
       d="m 215.5069,174.79259 h 14.34685"
       id="path418-4" /><path
       style="fill:#ff0000;fill-opacity:1;stroke:#00ff00;stroke-width:1.5;stroke-linecap:butt;stroke-linejoin:miter;stroke-miterlimit:4;stroke-dasharray:none;stroke-opacity:1"
       d="m 274.05079,174.79259 h 14.34685"
       id="path418-8" /><path
       style="fill:#ff0000;fill-opacity:1;stroke:#00ffff;stroke-width:1.5;stroke-linecap:butt;stroke-linejoin:miter;stroke-miterlimit:4;stroke-dasharray:none;stroke-opacity:1"
       d="m 332.51029,174.684 h 14.34685"
       id="path418-80" /></g></svg>
