<?xml version="1.0" encoding="UTF-8" standalone="no"?>
<svg
   xmlns:dc="http://purl.org/dc/elements/1.1/"
   xmlns:cc="http://creativecommons.org/ns#"
   xmlns:rdf="http://www.w3.org/1999/02/22-rdf-syntax-ns#"
   xmlns:svg="http://www.w3.org/2000/svg"
   xmlns="http://www.w3.org/2000/svg"
   xmlns:sodipodi="http://sodipodi.sourceforge.net/DTD/sodipodi-0.dtd"
   xmlns:inkscape="http://www.inkscape.org/namespaces/inkscape"
   width="489.00034"
   height="223.02164"
   overflow="hidden"
   version="1.1"
   id="svg85"
   sodipodi:docname="BrennstoffzelleProzessschritte.svg"
   inkscape:version="1.0.2-2 (e86c870879, 2021-01-15)">
  <metadata
     id="metadata89">
    <rdf:RDF>
      <cc:Work
         rdf:about="">
        <dc:format>image/svg+xml</dc:format>
        <dc:type
           rdf:resource="http://purl.org/dc/dcmitype/StillImage" />
        <dc:title></dc:title>
      </cc:Work>
    </rdf:RDF>
  </metadata>
  <sodipodi:namedview
     pagecolor="#ffffff"
     bordercolor="#666666"
     borderopacity="1"
     objecttolerance="10"
     gridtolerance="10"
     guidetolerance="10"
     inkscape:pageopacity="0"
     inkscape:pageshadow="2"
     inkscape:window-width="1920"
     inkscape:window-height="986"
     id="namedview87"
     showgrid="false"
     inkscape:zoom="7.9749997"
     inkscape:cx="292.30006"
     inkscape:cy="32.261676"
     inkscape:window-x="-11"
     inkscape:window-y="-11"
     inkscape:window-maximized="1"
     inkscape:current-layer="g83"
     inkscape:document-rotation="0" />
  <defs
     id="defs23">
    <clipPath
       id="clip0">
      <rect
         x="0"
         y="0"
         width="1280"
         height="720"
         id="rect2" />
    </clipPath>
    <clipPath
       id="clip1">
      <rect
         x="349"
         y="230"
         width="55"
         height="56"
         id="rect5" />
    </clipPath>
    <clipPath
       id="clip2">
      <rect
         x="349"
         y="230"
         width="55"
         height="56"
         id="rect8" />
    </clipPath>
    <clipPath
       id="clip3">
      <rect
         x="349"
         y="230"
         width="55"
         height="56"
         id="rect11" />
    </clipPath>
    <clipPath
       id="clip4">
      <rect
         x="808"
         y="215"
         width="62"
         height="62"
         id="rect14" />
    </clipPath>
    <clipPath
       id="clip5">
      <rect
         x="808"
         y="215"
         width="62"
         height="62"
         id="rect17" />
    </clipPath>
    <clipPath
       id="clip6">
      <rect
         x="808"
         y="215"
         width="62"
         height="62"
         id="rect20" />
    </clipPath>
    <clipPath
       clipPathUnits="userSpaceOnUse"
       id="clipPath897">
      <rect
         style="fill:#000000;stroke:#00ffff;stroke-width:2"
         id="rect899"
         width="493.68912"
         height="234.07674"
         x="312.70932"
         y="202.68556" />
    </clipPath>
    <clipPath
       clipPathUnits="userSpaceOnUse"
       id="clipPath901">
      <rect
         style="fill:#000000;stroke:#00ffff;stroke-width:2"
         id="rect903"
         width="493.68912"
         height="234.07674"
         x="312.70932"
         y="202.68556" />
    </clipPath>
    <clipPath
       clipPathUnits="userSpaceOnUse"
       id="clipPath905">
      <rect
         style="fill:#000000;stroke:#00ffff;stroke-width:2"
         id="rect907"
         width="493.68912"
         height="234.07674"
         x="312.70932"
         y="202.68556" />
    </clipPath>
    <clipPath
       clipPathUnits="userSpaceOnUse"
       id="clipPath909">
      <rect
         style="fill:#000000;stroke:#00ffff;stroke-width:2"
         id="rect911"
         width="493.68912"
         height="234.07674"
         x="312.70932"
         y="202.68556" />
    </clipPath>
    <clipPath
       clipPathUnits="userSpaceOnUse"
       id="clipPath913">
      <rect
         style="fill:#000000;stroke:#00ffff;stroke-width:2"
         id="rect915"
         width="493.68912"
         height="234.07674"
         x="312.70932"
         y="202.68556" />
    </clipPath>
    <clipPath
       clipPathUnits="userSpaceOnUse"
       id="clipPath917">
      <rect
         style="fill:#000000;stroke:#00ffff;stroke-width:2"
         id="rect919"
         width="493.68912"
         height="234.07674"
         x="312.70932"
         y="202.68556" />
    </clipPath>
    <clipPath
       clipPathUnits="userSpaceOnUse"
       id="clipPath921">
      <rect
         style="fill:#000000;stroke:#00ffff;stroke-width:2"
         id="rect923"
         width="493.68912"
         height="234.07674"
         x="312.70932"
         y="202.68556" />
    </clipPath>
    <clipPath
       clipPathUnits="userSpaceOnUse"
       id="clipPath925">
      <rect
         style="fill:#000000;stroke:#00ffff;stroke-width:2"
         id="rect927"
         width="493.68912"
         height="234.07674"
         x="312.70932"
         y="202.68556" />
    </clipPath>
    <clipPath
       clipPathUnits="userSpaceOnUse"
       id="clipPath929">
      <rect
         style="fill:#000000;stroke:#00ffff;stroke-width:2"
         id="rect931"
         width="493.68912"
         height="234.07674"
         x="312.70932"
         y="202.68556" />
    </clipPath>
    <clipPath
       clipPathUnits="userSpaceOnUse"
       id="clipPath933">
      <rect
         style="fill:#000000;stroke:#00ffff;stroke-width:2"
         id="rect935"
         width="493.68912"
         height="234.07674"
         x="312.70932"
         y="202.68556" />
    </clipPath>
    <clipPath
       clipPathUnits="userSpaceOnUse"
       id="clipPath937">
      <rect
         style="fill:#000000;stroke:#00ffff;stroke-width:2"
         id="rect939"
         width="493.68912"
         height="234.07674"
         x="312.70932"
         y="202.68556" />
    </clipPath>
    <clipPath
       clipPathUnits="userSpaceOnUse"
       id="clipPath941">
      <rect
         style="fill:#000000;stroke:#00ffff;stroke-width:2"
         id="rect943"
         width="493.68912"
         height="234.07674"
         x="312.70932"
         y="202.68556" />
    </clipPath>
    <clipPath
       clipPathUnits="userSpaceOnUse"
       id="clipPath945">
      <rect
         style="fill:#000000;stroke:#00ffff;stroke-width:2.36926"
         id="rect947"
         width="571.01373"
         height="284.00845"
         x="-119.25054"
         y="39.524937" />
    </clipPath>
    <clipPath
       clipPathUnits="userSpaceOnUse"
       id="clipPath949">
      <rect
         style="fill:#000000;stroke:#00ffff;stroke-width:2"
         id="rect951"
         width="493.68912"
         height="234.07674"
         x="312.70932"
         y="202.68556" />
    </clipPath>
    <clipPath
       clipPathUnits="userSpaceOnUse"
       id="clipPath953">
      <rect
         style="fill:#000000;stroke:#00ffff;stroke-width:2"
         id="rect955"
         width="493.68912"
         height="234.07674"
         x="312.70932"
         y="202.68556" />
    </clipPath>
    <clipPath
       clipPathUnits="userSpaceOnUse"
       id="clipPath957">
      <rect
         style="fill:#000000;stroke:#00ffff;stroke-width:2"
         id="rect959"
         width="493.68912"
         height="234.07674"
         x="312.70932"
         y="202.68556" />
    </clipPath>
    <clipPath
       clipPathUnits="userSpaceOnUse"
       id="clipPath961">
      <rect
         style="fill:#000000;stroke:#00ffff;stroke-width:2"
         id="rect963"
         width="493.68912"
         height="234.07674"
         x="312.70932"
         y="202.68556" />
    </clipPath>
    <clipPath
       clipPathUnits="userSpaceOnUse"
       id="clipPath965">
      <rect
         style="fill:#000000;stroke:#00ffff;stroke-width:2"
         id="rect967"
         width="493.68912"
         height="234.07674"
         x="312.70932"
         y="202.68556" />
    </clipPath>
    <clipPath
       clipPathUnits="userSpaceOnUse"
       id="clipPath969">
      <rect
         style="fill:#000000;stroke:#00ffff;stroke-width:2"
         id="rect971"
         width="493.68912"
         height="234.07674"
         x="312.70932"
         y="202.68556" />
    </clipPath>
    <clipPath
       clipPathUnits="userSpaceOnUse"
       id="clipPath973">
      <rect
         style="fill:#000000;stroke:#00ffff;stroke-width:2"
         id="rect975"
         width="493.68912"
         height="234.07674"
         x="312.70932"
         y="202.68556" />
    </clipPath>
    <clipPath
       clipPathUnits="userSpaceOnUse"
       id="clipPath977">
      <rect
         style="fill:#000000;stroke:#00ffff;stroke-width:2"
         id="rect979"
         width="493.68912"
         height="234.07674"
         x="312.70932"
         y="202.68556" />
    </clipPath>
    <clipPath
       clipPathUnits="userSpaceOnUse"
       id="clipPath981">
      <rect
         style="fill:#000000;stroke:#00ffff;stroke-width:2"
         id="rect983"
         width="493.68912"
         height="234.07674"
         x="312.70932"
         y="202.68556" />
    </clipPath>
  </defs>
  <g
     clip-path="url(#clip0)"
     id="g83"
     transform="translate(-315,-211.59445)">
    <rect
       x="485.78424"
       y="211.59445"
       width="150.66492"
       height="223.02164"
       fill="#b4c7e7"
       id="rect27"
       style="stroke-width:0.777731"
       clip-path="url(#clipPath981)"
       ry="7.5235114" />
    <path
       d="m 315,229.6373 c 0,-4.308 3.492,-7.8 7.8,-7.8 h 113.4 c 4.308,0 7.8,3.492 7.8,7.8 v 62.4 c 0,4.308 -3.492,7.8 -7.8,7.8 H 322.8 c -4.308,0 -7.8,-3.492 -7.8,-7.8 z"
       fill="#4472c4"
       fill-rule="evenodd"
       id="path29"
       clip-path="url(#clipPath977)" />
    <text
       fill="#FFFFFF"
       font-family="Calibri,Calibri_MSFontService,sans-serif"
       font-weight="400"
       font-size="15"
       id="text31"
       style="font-style:normal;font-variant:normal;font-weight:normal;font-stretch:normal;font-size:14.6667px;font-family:'Latin Modern Roman';-inkscape-font-specification:'Latin Modern Roman, Normal';font-variant-ligatures:normal;font-variant-caps:normal;font-variant-numeric:normal;font-variant-east-asian:normal;fill:#ffffff"
       x="701.0401"
       y="350.64008"
       clip-path="url(#clipPath973)">Stromquelle</text>
    <path
       d="m 572.47477,304.25435 0.003,9.389 6.406,-10e-4 -16.014,9.394 -16.019,-9.386 6.407,-0.002 -0.003,-9.389 z"
       fill="#203864"
       fill-rule="evenodd"
       id="path33"
       clip-path="url(#clipPath969)" />
    <path
       d="m 495.87748,229.85487 c 0,-4.308 3.492,-7.8 7.8,-7.8 h 113.4 c 4.308,0 7.8,3.492 7.8,7.8 v 62.4 c 0,4.308 -3.492,7.8 -7.8,7.8 h -113.4 c -4.308,0 -7.8,-3.492 -7.8,-7.8 z"
       fill="#4472c4"
       fill-rule="evenodd"
       id="path35"
       clip-path="url(#clipPath965)" />
    <path
       d="m 456.29068,252.16419 h 13.5 v -6.4 l 13.5,16 -13.5,16 v -6.4 h -13.5 z"
       fill="#203864"
       fill-rule="evenodd"
       id="path39"
       clip-path="url(#clipPath961)" />
    <path
       d="m 495,339.8 c 0,-4.308 3.492,-7.8 7.8,-7.8 h 114.4 c 4.308,0 7.8,3.492 7.8,7.8 v 62.4 c 0,4.308 -3.492,7.8 -7.8,7.8 H 502.8 c -4.308,0 -7.8,-3.492 -7.8,-7.8 z"
       fill="#4472c4"
       fill-rule="evenodd"
       id="path41"
       clip-path="url(#clipPath957)" />
    <text
       fill="#FFFFFF"
       font-family="Calibri,Calibri_MSFontService,sans-serif"
       font-weight="400"
       font-size="15"
       id="text43"
       style="font-style:normal;font-variant:normal;font-weight:normal;font-stretch:normal;font-size:14.6667px;font-family:'Latin Modern Roman';-inkscape-font-specification:'Latin Modern Roman, Normal';font-variant-ligatures:normal;font-variant-caps:normal;font-variant-numeric:normal;font-variant-east-asian:normal;fill:#ffffff"
       x="514.55908"
       y="239.51923"
       clip-path="url(#clipPath953)">Brennstoffzelle</text>
    <path
       d="m 674.50034,339.64398 c 0,-4.308 3.492,-7.8 7.8,-7.8 h 113.4 c 4.308,0 7.8,3.492 7.8,7.8 v 62.4 c 0,4.308 -3.492,7.8 -7.8,7.8 h -113.4 c -4.308,0 -7.8,-3.492 -7.8,-7.8 z"
       fill="#4472C4"
       fill-rule="evenodd"
       id="path53"
       style="fill:#4472c4;fill-opacity:1;stroke:#f4d7d7"
       clip-path="url(#clipPath949)" />
    <text
       fill="#FFFFFF"
       font-family="Calibri,Calibri_MSFontService,sans-serif"
       font-weight="400"
       font-size="15"
       id="text55"
       style="font-style:normal;font-variant:normal;font-weight:normal;font-stretch:normal;font-size:14.6667px;font-family:'Latin Modern Roman';-inkscape-font-specification:'Latin Modern Roman, Normal';font-variant-ligatures:normal;font-variant-caps:normal;font-variant-numeric:normal;font-variant-east-asian:normal;fill:#ffffff"
       x="522.67499"
       y="464.09076" />
    <g
       clip-path="url(#clipPath945)"
       id="g63"
       transform="matrix(0.86458358,0,0,0.82418933,415.81138,170.10953)">
      <g
         clip-path="url(#clip2)"
         id="g61">
        <g
           clip-path="url(#clip3)"
           id="g59">
          <path
             d="m 45.2604,20.0521 c 0.3164,0 0.5729,-0.2565 0.5729,-0.5729 v -2.8646 c 2e-4,-0.2248 -0.1311,-0.4289 -0.3357,-0.5219 L 32.8934,10.3635 c -0.0744,-0.034 -0.1553,-0.0514 -0.2372,-0.051 H 32.3446 L 32.0799,7.95667 C 32.0691,7.86162 32.0346,7.77087 31.9796,7.69255 L 27.9692,1.96339 C 27.7877,1.70424 27.4304,1.64135 27.1713,1.8229 27.1166,1.86119 27.0691,1.90873 27.0308,1.96339 l -4.0104,5.72916 c -0.055,0.07832 -0.0895,0.16907 -0.1003,0.26412 l -0.2647,2.35583 h -0.3116 c -0.0819,-2e-4 -0.1629,0.0174 -0.2372,0.0516 L 9.5024,16.0932 C 9.29798,16.1862 9.16672,16.39 9.16667,16.6146 v 2.8646 c 0,0.3164 0.25649,0.5729 0.57291,0.5729 0.31642,0 0.57292,-0.2565 0.57292,-0.5729 v -2.2917 h 11.5729 l -0.6989,6.199 -11.6841,5.3109 c -0.20442,0.093 -0.33568,0.2968 -0.33573,0.5214 v 2.8645 c 0,0.3165 0.25649,0.5729 0.57291,0.5729 0.31642,0 0.57292,-0.2564 0.57292,-0.5729 v -2.2916 h 10.1544 l -0.4011,3.5824 -7.6066,19.0312 c -0.1174,0.2938 0.0257,0.6271 0.3195,0.7445 0.0675,0.027 0.1395,0.0409 0.2122,0.0409 0.0772,-10e-5 0.1535,-0.0157 0.2246,-0.0458 l 14.2541,-6.0781 14.3378,6.1193 c 0.2911,0.1243 0.6277,-0.011 0.7518,-0.3021 0.0596,-0.1394 0.0613,-0.2967 0.0051,-0.4375 l -7.629,-19.0724 -0.4022,-3.5824 h 10.1544 v 2.2916 c 0,0.3165 0.2565,0.5729 0.5729,0.5729 0.3164,0 0.5729,-0.2564 0.5729,-0.5729 v -2.8645 c 0,-0.2246 -0.1313,-0.4284 -0.3357,-0.5214 l -11.6841,-5.3109 -0.6989,-6.199 h 11.5729 v 2.2917 c 0,0.3164 0.2565,0.5729 0.5729,0.5729 z M 24.0424,8.22995 27.4954,3.29771 c 0.0013,-0.00253 0.0044,-0.00353 0.0069,-0.00222 10e-4,4.9e-4 0.0018,0.00127 0.0023,0.00222 l 3.453,4.93224 0.2337,2.08255 h -7.3826 z m 7.2778,3.22835 0.5156,4.5834 h -8.6711 l 0.5157,-4.5834 z m -18.9097,4.5834 c -0.0143,0 -0.0154,-0.0052 0,-0.0109 l 10.0576,-4.5725 h 0.0573 l -0.5157,4.5834 z m 0,12.5932 8.627,-3.9221 -0.4417,3.933 h -8.1853 c -0.0143,0 -0.0154,-0.0051 -0.0023,-0.0109 z m 9.8444,-4.4744 0.2132,-0.098 h 10.0638 l 0.2154,0.098 0.5042,4.4853 h -11.503 z m 11.9167,10.3824 2.322,5.8048 -7.6197,-3.4244 z m 2.4951,7.1402 c 0.1159,0.0542 0.2474,0.0652 0.3706,0.031 l 0.0161,0.0401 c -0.0305,0.0037 -0.0606,0.01 -0.09,0.0189 l -9.4938,4.0482 -9.484,-4.0482 c -0.0132,-0.0035 -0.0266,-0.0062 -0.0401,-0.008 l 0.0172,-0.0436 c 0.0277,0.006 0.0559,0.01 0.0842,0.012 0.0809,-10e-5 0.161,-0.0173 0.2349,-0.0504 l 9.1924,-4.1313 z m -18.1432,-1.3647 2.3003,-5.7555 5.2525,2.3604 z m -4.4762,11.2258 c -0.0068,0 -0.0103,0 -0.0074,-0.0075 l 3.4839,-8.7175 c 0.0046,0 0.0074,0.0063 0.0115,0.008 l 8.4751,3.6163 z m 14.8827,-5.099 8.4815,-3.618 c 0.0198,-0.0114 0.0389,-0.0241 0.0573,-0.0378 l 3.5154,8.788 c 0,0.0074 0,0.0109 -0.008,0.0074 z m 4.8618,-12.9869 -6.3176,2.8371 -6.2683,-2.8176 0.4143,-3.6861 h 11.7596 z m 8.7977,-4.8125 h -8.1853 l -0.4417,-3.933 8.6293,3.9221 c 0.0131,0.0058 0.012,0.0109 -0.0023,0.0109 z M 32.6076,22.9167 H 22.3924 l 0.644,-5.7292 h 8.9272 z M 32.4729,11.4583 h 0.0573 l 10.0599,4.5725 c 0.0131,0.0057 0.012,0.0109 0,0.0109 H 32.988 Z"
             transform="matrix(1,0,0,1.01818,349,230)"
             id="path57" />
        </g>
      </g>
    </g>
    <rect
       x="544.81476"
       y="255.55017"
       width="32"
       height="34"
       fill="#bfbfbf"
       id="rect73"
       clip-path="url(#clipPath941)" />
    <rect
       x="541.81476"
       y="247.55017"
       width="5"
       height="45"
       id="rect75"
       clip-path="url(#clipPath937)" />
    <rect
       x="575.81476"
       y="247.55017"
       width="5"
       height="45"
       id="rect77"
       clip-path="url(#clipPath933)" />
    <path
       d="m 523.25835,273.21874 h 11.934 v 0.666 h -11.934 z m 10.6,-3.667 8,4 -8,4 z"
       fill="#595959"
       id="path79"
       clip-path="url(#clipPath929)" />
    <path
       d="m 599.52589,273.09301 -11.86679,7e-5 v 0.66667 l 11.8668,-7e-5 z m -10.53349,-3.6666 -7.9999,4.00004 8,3.99996 z"
       fill="#595959"
       id="path81"
       clip-path="url(#clipPath925)" />
    <text
       xml:space="preserve"
       style="font-style:normal;font-variant:normal;font-weight:normal;font-stretch:normal;font-size:14.6667px;line-height:1.25;font-family:'Latin Modern Roman';-inkscape-font-specification:'Latin Modern Roman, Normal';font-variant-ligatures:normal;font-variant-caps:normal;font-variant-numeric:normal;font-variant-east-asian:normal;letter-spacing:0px"
       x="595.93713"
       y="267.32886"
       id="text936"
       clip-path="url(#clipPath921)"><tspan
         sodipodi:role="line"
         x="595.93713"
         y="267.32886"
         id="tspan938">H2</tspan></text>
    <text
       xml:space="preserve"
       style="font-style:normal;font-variant:normal;font-weight:normal;font-stretch:normal;font-size:14.6667px;line-height:1.25;font-family:'Latin Modern Roman';-inkscape-font-specification:'Latin Modern Roman, Normal';font-variant-ligatures:normal;font-variant-caps:normal;font-variant-numeric:normal;font-variant-east-asian:normal;letter-spacing:0px"
       x="509.0015"
       y="268.79092"
       id="text936-7"
       clip-path="url(#clipPath917)"><tspan
         sodipodi:role="line"
         id="tspan966"
         x="509.0015"
         y="268.79092">O2</tspan></text>
    <text
       xml:space="preserve"
       style="font-style:normal;font-variant:normal;font-weight:normal;font-stretch:normal;font-size:14.6667px;line-height:1.25;font-family:'Latin Modern Roman';-inkscape-font-specification:'Latin Modern Roman, Normal';font-variant-ligatures:normal;font-variant-caps:normal;font-variant-numeric:normal;font-variant-east-asian:normal;letter-spacing:0px;fill:#000000;fill-opacity:1"
       x="487.17575"
       y="425.83746"
       id="text970"
       clip-path="url(#clipPath913)"><tspan
         sodipodi:role="line"
         id="tspan968"
         x="487.17575"
         y="425.83746">Brennstofzellen-System </tspan></text>
    <text
       fill="#FFFFFF"
       font-family="Calibri,Calibri_MSFontService,sans-serif"
       font-weight="400"
       font-size="15"
       id="text37-1"
       style="font-style:normal;font-variant:normal;font-weight:normal;font-stretch:normal;font-size:14.6667px;font-family:'Latin Modern Roman';-inkscape-font-specification:'Latin Modern Roman, Normal';font-variant-ligatures:normal;font-variant-caps:normal;font-variant-numeric:normal;font-variant-east-asian:normal;fill:#ffffff"
       x="346.02188"
       y="263.87799"
       clip-path="url(#clipPath909)">Gaszufuhr</text>
    <text
       fill="#FFFFFF"
       font-family="Calibri,Calibri_MSFontService,sans-serif"
       font-weight="400"
       font-size="15"
       id="text37-3"
       style="font-style:normal;font-variant:normal;font-weight:normal;font-stretch:normal;font-size:14.6667px;font-family:'Latin Modern Roman';-inkscape-font-specification:'Latin Modern Roman, Normal';font-variant-ligatures:normal;font-variant-caps:normal;font-variant-numeric:normal;font-variant-east-asian:normal;fill:#ffffff"
       x="704.91864"
       y="350.5979"
       clip-path="url(#clipPath905)"><tspan
         sodipodi:role="line"
         id="tspan909"
         x="704.91864"
         y="350.5979">Stromnetz</tspan></text>
    <text
       fill="#FFFFFF"
       font-family="Calibri,Calibri_MSFontService,sans-serif"
       font-weight="400"
       font-size="15"
       id="text43-0"
       style="font-style:normal;font-variant:normal;font-weight:normal;font-stretch:normal;font-size:14.6667px;font-family:'Latin Modern Roman';-inkscape-font-specification:'Latin Modern Roman, Normal';font-variant-ligatures:normal;font-variant-caps:normal;font-variant-numeric:normal;font-variant-east-asian:normal;fill:#ffffff"
       x="498.63745"
       y="374.82059"
       clip-path="url(#clipPath901)"><tspan
         sodipodi:role="line"
         id="tspan931"
         x="498.63745"
         y="374.82059">Leistungselektronik</tspan></text>
    <path
       d="m 639.68457,362.61387 h 13.5 v -6.4 l 13.5,16 -13.5,16 v -6.4 h -13.5 z"
       fill="#203864"
       fill-rule="evenodd"
       id="path39-1"
       clip-path="url(#clipPath897)" />
  </g>
</svg>
